<svg width="140" height="140" viewBox="0 0 100 100" fill="none" xmlns="http://www.w3.org/2000/svg">
<path fill-rule="evenodd" clip-rule="evenodd" d="M48.5697 1.90464C47.611 2.14658 46.3035 2.82563 44.3731 4.08398C41.3274 6.06909 41.2794 6.08159 36.8516 6.0388C33.22 6.00359 32.9347 6.02669 31.8651 6.4426C30.1074 7.12639 28.9153 8.46065 27.3205 11.5288C25.5115 15.0095 25.1512 15.3767 21.8886 17.0665C19.7939 18.1513 18.9286 18.7196 18.0299 19.6008C16.2955 21.3016 16.1525 21.8476 16.1451 26.7946C16.1385 31.3799 16.219 31.0753 14.1716 34.2593C12.1507 37.4023 12 37.804 12 40.0464C12 42.292 12.1747 42.7577 14.157 45.7978C16.1989 48.9292 16.1351 48.6858 16.1436 53.3928L16.151 57.463L16.7034 58.6594C17.4762 60.3331 18.722 61.3769 21.9439 63.0508C24.7768 64.5223 25.5406 65.1779 26.5213 66.98L27.0345 67.9227L21.7347 77.6705C16.014 88.1928 16.0132 88.1945 16.806 89.4945C17.5207 90.6667 17.9618 90.7712 22.6362 90.8763L26.8497 90.9709L29.1868 94.3785C30.5305 96.3381 31.7888 97.9671 32.1478 98.2121C33.3576 99.038 34.9159 98.5966 35.7986 97.1777C36.0438 96.7835 38.53 92.244 41.3233 87.0901C44.1167 81.9361 46.4608 77.6524 46.5323 77.5706C46.6037 77.4888 47.081 77.6101 47.5927 77.8403C48.9231 78.4386 51.3677 78.4433 52.6743 77.8502C53.1874 77.6173 53.6646 77.4926 53.7347 77.573C53.8049 77.6533 56.1433 81.9361 58.9312 87.0901C61.719 92.244 64.2056 96.7837 64.4568 97.1782C65.3627 98.6005 66.9082 99.0371 68.1168 98.2121C68.4757 97.9671 69.7341 96.3381 71.0778 94.3785L73.4148 90.9709L77.6283 90.8763C82.3028 90.7712 82.7439 90.6667 83.4585 89.4945C84.1735 88.3219 84.0068 87.7333 81.8155 83.6989C80.7078 81.6595 79.6723 79.8417 79.5144 79.6596C79.1258 79.211 77.9284 79.2199 77.517 79.6746C76.9294 80.3239 77.1475 81.0486 78.9052 84.2892C79.8412 86.0144 80.6596 87.5633 80.7239 87.7313C80.829 88.005 80.4824 88.0378 77.3659 88.048C73.2969 88.061 72.2557 88.1956 71.6228 88.7903C71.3688 89.029 70.2117 90.6182 69.0514 92.3219C67.8911 94.0257 66.8847 95.4197 66.8149 95.4197C66.586 95.4197 56.1654 76.0692 56.2606 75.821C56.3118 75.6877 57.058 75.226 57.9188 74.7951L59.484 74.0117L63.1852 74.0486C68.0575 74.0975 69.2345 73.7618 70.9241 71.8424L71.6864 70.9763L72.8761 73.2119C74.24 75.7752 74.6817 76.2994 75.4776 76.2994C76.1059 76.2994 76.8251 75.5652 76.8251 74.9238C76.8251 74.7162 76.0167 73.055 75.0287 71.2325L73.2321 67.919L73.7442 66.9781C74.7228 65.1802 75.4893 64.5216 78.3062 63.0582C81.5226 61.3874 82.6473 60.4495 83.4901 58.7359L84.1135 57.4683L84.1175 53.3954C84.1219 48.6876 84.0539 48.9474 86.1075 45.7978C88.0898 42.7577 88.2645 42.292 88.2645 40.0464C88.2645 37.8008 88.0898 37.3351 86.1075 34.2949C84.0649 31.1622 84.126 31.3932 84.1194 26.7946C84.1122 21.9013 83.9642 21.3402 82.2221 19.6006C81.328 18.7077 80.5021 18.1609 78.3625 17.0461C75.0813 15.3366 74.7451 14.9941 72.944 11.5288C71.3493 8.46065 70.1572 7.12639 68.3994 6.4426C67.3298 6.02669 67.0445 6.00359 63.413 6.0388C58.9646 6.08178 58.9778 6.08537 55.7682 4.00617C53.2779 2.39306 52.1013 1.8946 50.5658 1.80241C49.8589 1.76 48.9606 1.80601 48.5697 1.90464ZM51.5974 4.89612C52.0932 5.08619 53.5177 5.89758 54.763 6.69931C58.0055 8.78665 58.5846 8.93582 63.1947 8.87108C68.3118 8.79914 68.4032 8.85366 70.7145 13.3536C72.4694 16.7704 73.4953 17.7766 77.1609 19.6756C81.2824 21.811 81.4899 22.1736 81.2907 26.8893C81.214 28.7023 81.2428 30.2212 81.3661 30.8641C81.6226 32.2015 82.4022 33.8574 83.6361 35.686C86.1441 39.4027 86.1509 40.6794 83.6819 44.3394C81.4361 47.668 81.1099 48.8777 81.2915 53.2035C81.4889 57.9097 81.2451 58.3236 76.9805 60.5188C73.5581 62.2805 72.424 63.3903 70.8173 66.5499C68.4388 71.2273 68.4352 71.2294 62.7273 71.2614C57.877 71.2887 58.0394 71.2427 54.3094 73.6411C50.4178 76.1434 49.7758 76.1407 45.887 73.6049C44.742 72.8585 43.2908 72.0304 42.6619 71.7652C41.5624 71.301 41.363 71.2819 37.4479 71.2629C33.6639 71.2448 33.3204 71.2143 32.5707 70.8319C31.5603 70.3166 30.9076 69.4217 29.4472 66.5499C27.8319 63.373 26.6947 62.2591 23.2899 60.5182C21.9061 59.8106 20.4453 58.9189 20.044 58.5367C18.9827 57.5262 18.8246 56.739 18.9731 53.2035C19.1546 48.8777 18.8284 47.668 16.5826 44.3394C14.1137 40.6794 14.1205 39.4027 16.6285 35.686C17.8624 33.8574 18.642 32.2015 18.8985 30.8641C19.0217 30.2212 19.0505 28.7023 18.9738 26.8893C18.7747 22.1736 18.9822 21.811 23.1036 19.6756C26.7276 17.798 27.8209 16.7411 29.4472 13.5429C30.9025 10.6811 31.5565 9.78166 32.5713 9.24705C33.3391 8.84249 33.5576 8.82432 37.0698 8.8724C41.6824 8.93544 42.2833 8.78097 45.5163 6.69969C48.9326 4.50028 49.8529 4.22748 51.5974 4.89612ZM47.198 10.817C40.8309 11.4811 34.7832 14.2059 30.3391 18.4125C28.8439 19.8278 28.7252 19.9946 28.7778 20.6057C28.8504 21.4466 29.6095 22.0751 30.3332 21.8936C30.6028 21.8258 31.4833 21.1678 32.2901 20.4311C35.8954 17.1392 40.0373 15.0477 45.0209 14.0023C47.5913 13.4632 52.0214 13.4089 54.6235 13.8846C58.3234 14.561 62.194 16.1419 65.2442 18.2228C68.4013 20.3764 72.0895 24.6365 73.8847 28.2029C76.787 33.9693 77.4206 41.1059 75.5913 47.4295C73.5595 54.4529 68.5015 60.4984 61.8981 63.7958C59.8433 64.822 56.9304 65.7892 54.6757 66.194C52.2785 66.6243 47.9938 66.622 45.5888 66.1888C36.2013 64.4985 28.2985 57.83 25.1512 48.944C23.7384 44.9544 23.2727 40.1556 23.9023 36.0709C24.2925 33.5392 25.4098 30.0886 26.561 27.8597C27.4797 26.0809 27.617 25.2377 27.0687 24.7416C26.6097 24.326 25.4742 24.3362 25.0923 24.7595C24.57 25.3386 22.91 28.8352 22.3239 30.5911C21.1789 34.0204 20.8997 35.8745 20.8997 40.0464C20.8997 43.2749 20.9631 44.1255 21.33 45.8204C22.5336 51.381 25.1124 56.3008 28.8823 60.2284C33.5358 65.0766 39.1117 67.9951 45.8728 69.1209C47.5747 69.4043 52.6762 69.4058 54.3918 69.1234C61.1596 68.0093 66.7861 65.0528 71.4267 60.1722C75.2258 56.1768 77.7211 51.3895 78.9505 45.738C79.2995 44.1332 79.3649 43.2353 79.3649 40.0464C79.3649 36.8245 79.3011 35.9639 78.9363 34.2724C77.376 27.0358 73.451 20.8813 67.5897 16.4804C61.7845 12.1215 54.3867 10.067 47.198 10.817ZM48.3338 20.9016C47.6411 21.3105 47.3589 21.7739 45.0209 26.3433L42.4652 31.3381L37.2591 32.1023C34.0216 32.5777 31.8242 32.9893 31.4477 33.1907C29.9366 33.9994 29.214 36.2168 29.9794 37.697C30.163 38.052 32.0139 40.0038 34.0924 42.0341L37.8714 45.7257L36.9527 51.1453L36.0341 56.5649L36.4099 57.4675C36.9623 58.7936 37.9291 59.5013 39.3264 59.6024C40.5639 59.6917 40.705 59.6306 47.1048 56.2317C48.6723 55.3991 50.0308 54.7179 50.1238 54.7179C50.2165 54.7179 52.4076 55.8298 54.9924 57.1888L59.6925 59.6597L60.8686 59.594C61.8427 59.5397 62.1679 59.4288 62.7618 58.949C63.175 58.6153 63.6379 57.9877 63.8546 57.4675L64.2304 56.5649L63.3115 51.1453L62.3926 45.7257L66.1741 42.0341C68.2538 40.0038 70.1047 38.052 70.2872 37.697C71.0494 36.2136 70.3257 33.996 68.8169 33.1922C68.4435 32.9932 66.2163 32.5758 63.0054 32.1031L57.7994 31.3366L55.2437 26.3426C52.9059 21.7741 52.6234 21.3103 51.9307 20.9016C51.3823 20.5779 50.8865 20.4546 50.1323 20.4546C49.3781 20.4546 48.8823 20.5779 48.3338 20.9016ZM52.8773 27.9731C55.1397 32.5408 55.6308 33.3094 56.6116 33.8196C56.8954 33.9672 59.4407 34.4295 62.2678 34.8468C65.095 35.264 67.4824 35.6511 67.5733 35.7072C68.0562 36.0057 67.4192 36.8041 63.954 40.2431C60.9837 43.1908 60.0997 44.1822 59.8437 44.8526C59.5196 45.7011 59.5234 45.7408 60.4264 51.055C60.9264 53.9965 61.2802 56.4925 61.2126 56.6018C60.951 57.0251 60.203 56.7209 55.7639 54.3867C51.498 52.1435 51.0998 51.9729 50.1323 51.9729C49.1641 51.9729 48.77 52.1422 44.512 54.3867C40.0973 56.7137 39.3168 57.0304 39.0519 56.6018C38.9843 56.4925 39.3382 53.9965 39.8381 51.055C40.7411 45.7408 40.7449 45.7011 40.4208 44.8526C40.1649 44.1822 39.2808 43.1908 36.3105 40.2431C32.838 36.7969 32.208 36.0061 32.6951 35.7049C32.788 35.6476 35.1648 35.2657 37.9772 34.8564C40.7896 34.4469 43.3332 33.9854 43.6298 33.8306C44.6614 33.292 45.2049 32.4459 47.3008 28.1187C48.4603 25.7245 49.5004 23.6551 49.612 23.5199C49.7237 23.3848 49.9929 23.2996 50.2103 23.3306C50.5207 23.3749 51.0926 24.3705 52.8773 27.9731ZM30.8887 73.1632C32.2776 73.967 33.1246 74.0882 37.0793 74.0486L40.7805 74.0117L42.3457 74.7951C43.2065 75.226 43.9528 75.6877 44.0039 75.821C44.0991 76.0692 33.6785 95.4197 33.4497 95.4197C33.3798 95.4197 32.3734 94.0257 31.2131 92.3219C30.0529 90.6182 28.8935 89.0269 28.6368 88.7855C28.0164 88.203 26.9408 88.0673 22.804 88.0504C19.7422 88.0379 19.4348 88.0071 19.5435 87.7239C19.6292 87.5005 27.6613 72.6193 28.4988 71.1325C28.5454 71.0498 28.9251 71.3707 29.3431 71.8453C29.7609 72.32 30.4565 72.9132 30.8887 73.1632Z" fill="white"/>
</svg>
