<svg width="30" height="30" viewBox="0 0 30 30" fill="none" xmlns="http://www.w3.org/2000/svg">
<path d="M20.8333 10.0002V7.54183C20.8333 6.77578 20.6824 6.01724 20.3892 5.30951C20.0961 4.60178 19.6664 3.95871 19.1247 3.41704C18.583 2.87536 17.94 2.44568 17.2322 2.15253C16.5245 1.85938 15.766 1.7085 14.9999 1.7085C14.2339 1.7085 13.4753 1.85938 12.7676 2.15253C12.0599 2.44568 11.4168 2.87536 10.8751 3.41704C10.3335 3.95871 9.90377 4.60178 9.61062 5.30951C9.31747 6.01724 9.16658 6.77578 9.16658 7.54183V13.3752C9.16658 13.5962 9.25438 13.8081 9.41066 13.9644C9.56694 14.1207 9.7789 14.2085 9.99992 14.2085C10.2209 14.2085 10.4329 14.1207 10.5892 13.9644C10.7455 13.8081 10.8333 13.5962 10.8333 13.3752V11.6668H17.4999V10.0002H10.8333V7.54183C10.8333 6.43676 11.2722 5.37695 12.0536 4.59555C12.835 3.81415 13.8948 3.37516 14.9999 3.37516C16.105 3.37516 17.1648 3.81415 17.9462 4.59555C18.7276 5.37695 19.1666 6.43676 19.1666 7.54183V13.3335C19.1666 13.5545 19.2544 13.7665 19.4107 13.9228C19.5669 14.079 19.7789 14.1668 19.9999 14.1668C20.2209 14.1668 20.4329 14.079 20.5892 13.9228C20.7455 13.7665 20.8333 13.5545 20.8333 13.3335V11.6668H24.9999V26.6668H4.99992V11.6668H7.49992V10.0002H3.33325V26.7418C3.33325 27.164 3.50094 27.5688 3.79944 27.8673C4.09794 28.1658 4.50278 28.3335 4.92492 28.3335H25.0749C25.4971 28.3335 25.9019 28.1658 26.2004 27.8673C26.4989 27.5688 26.6666 27.164 26.6666 26.7418V10.0002H20.8333Z" fill="#545454"/>
</svg>
