<svg width="72" height="71" viewBox="0 0 72 71" fill="none" xmlns="http://www.w3.org/2000/svg">
<rect x="0.390323" y="0.390323" width="70.2581" height="70.2194" fill="white"/>
<rect width="64.0129" height="39.0323" transform="translate(3.90283 16.3936)" fill="white"/>
<g clip-path="url(#clip0_6207_141)">
<path d="M36.9394 33.261C36.9109 35.5084 38.9422 36.7626 40.4725 37.5082C42.0447 38.2733 42.5728 38.7639 42.5668 39.448C42.5548 40.4952 41.3126 40.9573 40.1499 40.9753C38.1216 41.0068 36.9424 40.4277 36.0047 39.9896L35.2741 43.4087C36.2148 43.8423 37.9565 44.2203 39.7628 44.2368C44.0025 44.2368 46.7765 42.144 46.7915 38.8989C46.808 34.7807 41.0951 34.5527 41.1341 32.7119C41.1476 32.1538 41.6802 31.5582 42.8474 31.4067C43.4249 31.3302 45.0197 31.2717 46.8275 32.1043L47.5371 28.7963C46.565 28.4422 45.3153 28.1031 43.7595 28.1031C39.7688 28.1031 36.9619 30.2245 36.9394 33.261ZM54.3558 28.3882C53.5816 28.3882 52.929 28.8398 52.638 29.5329L46.5815 43.9938H50.8182L51.6613 41.6639H56.8387L57.3278 43.9938H61.0619L57.8033 28.3882H54.3558ZM54.9484 32.6039L56.1711 38.4639H52.8225L54.9484 32.6039ZM31.8025 28.3882L28.463 43.9938H32.5001L35.8382 28.3882H31.8025ZM25.83 28.3882L21.6278 39.0099L19.9281 29.9785C19.7285 28.9703 18.9409 28.3882 18.0662 28.3882H11.1966L11.1006 28.8413C12.5108 29.1473 14.1131 29.6409 15.0837 30.169C15.6778 30.4915 15.8474 30.7736 16.0424 31.5402L19.2619 43.9938H23.5286L30.0697 28.3882H25.83Z" fill="url(#paint0_linear_6207_141)"/>
</g>
<rect x="0.390323" y="0.390323" width="70.2581" height="70.2194" stroke="#D3D3D3" stroke-width="0.780645"/>
<defs>
<linearGradient id="paint0_linear_6207_141" x1="34.0699" y1="44.5605" x2="34.5369" y2="27.9909" gradientUnits="userSpaceOnUse">
<stop stop-color="#222357"/>
<stop offset="1" stop-color="#254AA5"/>
</linearGradient>
<clipPath id="clip0_6207_141">
<rect width="49.9613" height="16.1984" fill="white" transform="translate(11.1006 28.103)"/>
</clipPath>
</defs>
</svg>
