<svg width="72" height="71" viewBox="0 0 72 71" fill="none" xmlns="http://www.w3.org/2000/svg">
<rect x="0.390323" y="0.390323" width="70.2581" height="70.2194" fill="white"/>
<rect width="64.0129" height="39.0323" transform="translate(3.90332 16.3936)" fill="white"/>
<g clip-path="url(#clip0_6207_146)">
<path d="M34.4095 35.673V40.6871H32.8276V28.3098H37.0229C38.0349 28.2901 39.0076 28.675 39.7445 29.3857C40.4814 30.047 40.894 31.0044 40.8744 31.9914C40.894 32.9883 40.4814 33.9457 39.7445 34.6169C39.0076 35.3177 38.1037 35.673 37.0328 35.673H34.4095ZM34.4095 29.8298V34.153H37.0622C37.6517 34.1727 38.2216 33.9358 38.6244 33.5114C39.4595 32.7021 39.4694 31.3696 38.6637 30.5306L38.6244 30.4911C38.2216 30.0568 37.6517 29.8199 37.0622 29.8397L34.4095 29.8298ZM44.5195 31.942C45.6886 31.942 46.6122 32.2579 47.2901 32.8797C47.968 33.5114 48.3021 34.3701 48.3021 35.4657V40.6772H46.789V39.5026H46.7203C46.062 40.4699 45.1974 40.9536 44.1068 40.9536C43.1832 40.9536 42.3972 40.6772 41.7783 40.1245C41.1691 39.6112 40.8252 38.8512 40.8449 38.0517C40.8449 37.1733 41.1789 36.4824 41.8372 35.9592C42.4955 35.4361 43.3797 35.1795 44.4802 35.1795C45.4234 35.1795 46.1897 35.3571 46.7989 35.6927V35.3275C46.7989 34.7847 46.5631 34.2714 46.1504 33.926C45.7279 33.5509 45.1876 33.3436 44.6275 33.3436C43.7433 33.3436 43.0457 33.7187 42.525 34.4688L41.1298 33.5904C41.8863 32.4948 43.0162 31.942 44.5195 31.942ZM42.4758 38.0912C42.4758 38.5057 42.6723 38.8907 42.9966 39.1276C43.3503 39.4039 43.7826 39.552 44.2247 39.5421C44.8928 39.5421 45.5314 39.2756 46.003 38.8019C46.5238 38.3083 46.789 37.726 46.789 37.0548C46.2978 36.66 45.61 36.4626 44.7258 36.4626C44.0871 36.4626 43.5468 36.6205 43.1145 36.9265C42.692 37.2424 42.4758 37.6273 42.4758 38.0912ZM56.9874 32.2184L51.7016 44.418H50.0706L52.0356 40.1541L48.5575 32.2283H50.2769L52.7823 38.3083H52.8216L55.2681 32.2283L56.9874 32.2184Z" fill="#5F6368"/>
<path d="M28.0137 34.587C28.0137 34.1034 27.9744 33.6198 27.8958 33.146H21.2246V35.88H25.0466C24.8894 36.7585 24.3785 37.5481 23.6317 38.0416V39.8183H25.9112C27.2474 38.5845 28.0137 36.7585 28.0137 34.587Z" fill="#4285F4"/>
<path d="M21.2247 41.536C23.1308 41.536 24.7421 40.9043 25.9113 39.8186L23.6319 38.0419C22.9932 38.4762 22.1778 38.723 21.2247 38.723C19.3776 38.723 17.8154 37.4694 17.2554 35.7915H14.9072V37.6274C16.1059 40.016 18.5523 41.536 21.2247 41.536Z" fill="#34A853"/>
<path d="M17.2551 35.7914C16.9604 34.9129 16.9604 33.9555 17.2551 33.0672V31.2412H14.9069C14.408 32.2292 14.1479 33.3214 14.1479 34.4293C14.1479 35.5372 14.408 36.6294 14.9069 37.6174L17.2551 35.7914Z" fill="#FBBC04"/>
<path d="M21.2247 30.1357C22.2367 30.116 23.2094 30.5009 23.9365 31.2017L25.9506 29.1783C24.6733 27.9643 22.9834 27.303 21.2247 27.3227C18.5523 27.3227 16.1059 28.8427 14.9072 31.2412L17.2554 33.077C17.8154 31.3892 19.3776 30.1357 21.2247 30.1357Z" fill="#EA4335"/>
</g>
<rect x="0.390323" y="0.390323" width="70.2581" height="70.2194" stroke="#D3D3D3" stroke-width="0.780645"/>
<defs>
<clipPath id="clip0_6207_146">
<rect width="42.9355" height="17.1742" fill="white" transform="translate(14.0518 27.3228)"/>
</clipPath>
</defs>
</svg>
