<svg width="72" height="71" viewBox="0 0 72 71" fill="none" xmlns="http://www.w3.org/2000/svg">
<rect x="0.390323" y="0.390323" width="70.2581" height="70.2194" fill="white"/>
<rect width="64.0129" height="39.0323" transform="translate(3.90332 16.3936)" fill="white"/>
<g clip-path="url(#clip0_6207_155)">
<path d="M28.2693 40.8442C28.016 41.4352 27.7025 41.9985 27.3338 42.5252C26.8441 43.2269 26.4421 43.7093 26.1351 43.9797C25.6527 44.4182 25.1411 44.6448 24.5929 44.6594C24.1982 44.6594 23.7232 44.5498 23.1677 44.3159C22.6827 44.1056 22.1614 43.9914 21.6328 43.9797C21.0899 43.9895 20.5539 44.1036 20.0541 44.3159C19.4913 44.5425 19.0382 44.6594 18.6873 44.6741C18.1611 44.696 17.6349 44.4621 17.1086 43.9724C16.7724 43.68 16.3558 43.1757 15.8515 42.4668C15.2859 41.6544 14.8381 40.7661 14.5213 39.8283C14.1485 38.7465 13.9585 37.7014 13.9585 36.6854C13.9585 35.5233 14.207 34.522 14.7113 33.6815C15.0929 33.0224 15.6362 32.4715 16.29 32.0808C16.9346 31.692 17.6715 31.4825 18.4242 31.4742C18.8408 31.4742 19.3963 31.6058 20.076 31.8616C20.7558 32.1174 21.1943 32.2489 21.3843 32.2489C21.5305 32.2489 22.0129 32.0955 22.8388 31.7958C23.6184 31.5181 24.2762 31.4011 24.8122 31.445C26.274 31.5619 27.3703 32.1393 28.1012 33.1772C26.7929 33.9665 26.1497 35.0775 26.1643 36.4954C26.179 37.6064 26.5809 38.5273 27.3703 39.2582C27.7211 39.5888 28.1267 39.8558 28.569 40.0475C28.4813 40.3253 28.3789 40.5884 28.2693 40.8442ZM24.9218 27.6736C24.9218 28.5433 24.6075 29.3546 23.9717 30.1001C23.2115 30.9918 22.2833 31.5034 21.2893 31.423C21.2742 31.3141 21.2669 31.2042 21.2674 31.0941C21.2674 30.2609 21.6328 29.3692 22.276 28.6384C22.6178 28.2504 23.0357 27.9369 23.5039 27.7174C23.9404 27.493 24.4177 27.3587 24.9072 27.3228C24.9145 27.4397 24.9218 27.5566 24.9218 27.6736Z" fill="#272727"/>
<path d="M38.1583 36.3932C38.5189 36.3932 38.8332 36.3493 39.1012 36.2616C39.3692 36.169 39.5909 36.0399 39.7663 35.8742C39.9466 35.7037 40.0806 35.499 40.1683 35.2603C40.256 35.0166 40.2998 34.7462 40.2998 34.449C40.2998 34.1664 40.256 33.9106 40.1683 33.6816C40.0806 33.4525 39.949 33.2576 39.7736 33.0968C39.5982 32.936 39.3765 32.8142 39.1085 32.7314C38.8405 32.6437 38.5238 32.5998 38.1583 32.5998H36.6892V36.3932H38.1583ZM38.1583 31.0796C38.8648 31.0796 39.4764 31.1624 39.9929 31.3281C40.5093 31.4938 40.9357 31.7252 41.2719 32.0224C41.6081 32.3197 41.8566 32.6754 42.0174 33.0895C42.1831 33.5037 42.2659 33.9569 42.2659 34.449C42.2659 34.9606 42.1806 35.4308 42.0101 35.8596C41.8396 36.2835 41.5838 36.649 41.2427 36.9559C40.9016 37.2629 40.4728 37.5017 39.9563 37.6722C39.4447 37.8427 38.8454 37.928 38.1583 37.928H36.6892V41.6482H34.7231V31.0796H38.1583Z" fill="#272727"/>
<path d="M47.5139 38.4469C46.9926 38.4713 46.554 38.5176 46.1983 38.5858C45.8426 38.6492 45.5576 38.732 45.3432 38.8343C45.1288 38.9366 44.9753 39.056 44.8827 39.1925C44.7901 39.3289 44.7439 39.4775 44.7439 39.6383C44.7439 39.955 44.8364 40.1816 45.0216 40.318C45.2116 40.4545 45.4577 40.5227 45.7598 40.5227C46.1301 40.5227 46.4493 40.4569 46.7173 40.3253C46.9901 40.1889 47.2557 39.9843 47.5139 39.7114V38.4469ZM43.3771 35.1945C44.2395 34.4051 45.2774 34.0105 46.4907 34.0105C46.9292 34.0105 47.3215 34.0835 47.6674 34.2297C48.0134 34.371 48.3057 34.5708 48.5445 34.8291C48.7832 35.0824 48.9635 35.387 49.0853 35.7427C49.212 36.0984 49.2754 36.4882 49.2754 36.9121V41.6482H48.4568C48.2862 41.6482 48.1547 41.6239 48.0621 41.5752C47.9695 41.5216 47.8964 41.4168 47.8428 41.2609L47.682 40.72C47.492 40.8906 47.3068 41.0416 47.1266 41.1732C46.9463 41.2999 46.7587 41.4071 46.5638 41.4948C46.3689 41.5825 46.1593 41.6482 45.9352 41.6921C45.7159 41.7408 45.4723 41.7652 45.2043 41.7652C44.8876 41.7652 44.5952 41.7238 44.3273 41.6409C44.0593 41.5532 43.8278 41.4241 43.6329 41.2536C43.438 41.083 43.287 40.8711 43.1798 40.6177C43.0726 40.3643 43.019 40.0695 43.019 39.7333C43.019 39.5433 43.0506 39.3557 43.114 39.1705C43.1773 38.9805 43.2796 38.8002 43.4209 38.6297C43.5671 38.4591 43.7547 38.2983 43.9837 38.1473C44.2127 37.9962 44.4929 37.8647 44.8243 37.7526C45.1605 37.6405 45.5503 37.5504 45.9937 37.4822C46.4371 37.4091 46.9438 37.3652 47.5139 37.3506V36.9121C47.5139 36.4102 47.4067 36.0399 47.1923 35.8011C46.9779 35.5575 46.6685 35.4357 46.2641 35.4357C45.9718 35.4357 45.7281 35.4698 45.5332 35.538C45.3432 35.6062 45.1751 35.6842 45.0289 35.7719C44.8827 35.8547 44.7487 35.9303 44.6269 35.9985C44.51 36.0667 44.3784 36.1008 44.2322 36.1008C44.1055 36.1008 43.9984 36.0691 43.9106 36.0058C43.8229 35.9376 43.7523 35.8596 43.6987 35.7719L43.3771 35.1945Z" fill="#272727"/>
<path d="M57.8657 34.1493L53.78 43.7093C53.7264 43.836 53.6558 43.9311 53.5681 43.9944C53.4853 44.0626 53.3561 44.0967 53.1807 44.0967H51.8359L53.2392 41.0855L50.206 34.1493H51.792C51.9333 34.1493 52.043 34.1834 52.1209 34.2516C52.2038 34.3199 52.2647 34.3978 52.3036 34.4855L53.897 38.3739C53.9506 38.5054 53.9944 38.637 54.0285 38.7685C54.0675 38.9001 54.1041 39.0341 54.1382 39.1705C54.182 39.0341 54.2259 38.9001 54.2697 38.7685C54.3136 38.6321 54.3623 38.4981 54.4159 38.3666L55.9215 34.4855C55.9605 34.3881 56.0239 34.3077 56.1116 34.2443C56.2042 34.181 56.3065 34.1493 56.4186 34.1493H57.8657Z" fill="#272727"/>
</g>
<rect x="0.390323" y="0.390323" width="70.2581" height="70.2194" stroke="#D3D3D3" stroke-width="0.780645"/>
<defs>
<clipPath id="clip0_6207_155">
<rect width="43.7161" height="17.1742" fill="white" transform="translate(13.9585 27.3228)"/>
</clipPath>
</defs>
</svg>
