<svg width="72" height="71" viewBox="0 0 72 71" fill="none" xmlns="http://www.w3.org/2000/svg">
<rect x="0.390323" y="0.390323" width="70.2581" height="70.2194" fill="white"/>
<rect width="64.0129" height="39.0323" transform="translate(3.90332 16.3936)" fill="white"/>
<g clip-path="url(#clip0_6207_135)">
<path d="M41.1897 45.8729H30.6343V26.9033H41.1899L41.1897 45.8729Z" fill="#FF5F00"/>
<path d="M31.3038 36.3885C31.3038 32.5405 33.1055 29.1127 35.9112 26.9037C33.7874 25.2291 31.1607 24.3202 28.4562 24.3242C21.794 24.3242 16.3936 29.7255 16.3936 36.3885C16.3936 43.0514 21.794 48.4527 28.4562 48.4527C31.1608 48.4567 33.7876 47.5479 35.9114 45.8733C33.1059 43.6646 31.3038 40.2366 31.3038 36.3885Z" fill="#EB001B"/>
<path d="M55.4304 36.3885C55.4304 43.0514 50.0299 48.4527 43.3677 48.4527C40.6629 48.4567 38.0358 47.5478 35.9116 45.8733C38.718 43.6642 40.5197 40.2366 40.5197 36.3885C40.5197 32.5403 38.718 29.1127 35.9116 26.9037C38.0357 25.2291 40.6627 24.3203 43.3675 24.3242C50.0297 24.3242 55.4302 29.7255 55.4302 36.3885" fill="#F79E1B"/>
</g>
<rect x="0.390323" y="0.390323" width="70.2581" height="70.2194" stroke="#D3D3D3" stroke-width="0.780645"/>
<defs>
<clipPath id="clip0_6207_135">
<rect width="39.0323" height="23.9516" fill="white" transform="translate(16.3936 24.3242)"/>
</clipPath>
</defs>
</svg>
