<svg width="361" height="75" viewBox="0 0 361 75" fill="none" xmlns="http://www.w3.org/2000/svg">
<path d="M105.362 74.6683C100.495 74.6683 96.1026 73.588 92.1827 71.4277C88.3305 69.1998 85.2555 66.1617 82.9577 62.3136C80.7274 58.4654 79.6123 54.1446 79.6123 49.3513C79.6123 44.558 80.7274 40.2709 82.9577 36.4902C85.1879 32.6421 88.1954 29.604 91.98 27.3761C95.8322 25.1482 100.09 24.0343 104.753 24.0343C109.281 24.0343 113.269 25.0807 116.716 27.1736C120.229 29.2665 122.966 32.1357 124.927 35.7814C126.954 39.427 127.968 43.579 127.968 48.2373C127.968 49.0475 127.9 49.8913 127.765 50.769C127.698 51.5792 127.563 52.4906 127.36 53.5033H94.4897V44.3891H121.582L117.425 48.0348C117.289 45.0643 116.716 42.5663 115.702 40.541C114.688 38.5156 113.234 36.9629 111.343 35.8826C109.518 34.8024 107.253 34.2624 104.551 34.2624C101.712 34.2624 99.2452 34.87 97.1501 36.0852C95.0551 37.3004 93.4331 39.0219 92.2841 41.2498C91.1352 43.4102 90.5607 46.0094 90.5607 49.0475C90.5607 52.0855 91.169 54.7522 92.3855 57.0476C93.602 59.3431 95.3253 61.1321 97.5556 62.4148C99.7858 63.6301 102.354 64.2377 105.26 64.2377C107.76 64.2377 110.058 63.7989 112.154 62.9212C114.316 62.0435 116.141 60.7608 117.628 59.073L124.724 66.263C122.358 69.031 119.486 71.1239 116.107 72.5416C112.728 73.9594 109.146 74.6683 105.362 74.6683ZM132.346 73.6556V25.047H143.497V73.6556H132.346ZM143.497 46.617L139.644 44.693C139.644 38.5493 140.996 33.5872 143.699 29.8066C146.47 25.9584 150.626 24.0343 156.169 24.0343C158.601 24.0343 160.797 24.4731 162.758 25.3508C164.717 26.2285 166.542 27.6462 168.232 29.604L160.933 37.0979C160.054 36.1527 159.074 35.4776 157.993 35.0725C156.912 34.6674 155.662 34.4649 154.242 34.4649C151.133 34.4649 148.565 35.4439 146.538 37.4017C144.51 39.3595 143.497 42.4313 143.497 46.617ZM169.167 73.6556V25.047L180.318 29.604V73.6556H169.167ZM174.742 16.7969C172.851 16.7969 171.262 16.1556 169.978 14.8728C168.761 13.5901 168.153 12.0036 168.153 10.1132C168.153 8.22291 168.761 6.63637 169.978 5.35364C171.262 4.07092 172.851 3.42956 174.742 3.42956C176.703 3.42956 178.29 4.07092 179.507 5.35364C180.723 6.63637 181.332 8.22291 181.332 10.1132C181.332 12.0036 180.723 13.5901 179.507 14.8728C178.29 16.1556 176.703 16.7969 174.742 16.7969ZM208.64 74.6683C204.247 74.6683 200.259 73.5543 196.678 71.3264C193.163 69.0985 190.359 66.0942 188.264 62.3136C186.236 58.4654 185.222 54.1784 185.222 49.4525C185.222 44.6592 186.236 40.3722 188.264 36.5915C190.359 32.7433 193.163 29.7053 196.678 27.4774C200.259 25.182 204.247 24.0343 208.64 24.0343C212.357 24.0343 215.635 24.8444 218.473 26.4647C221.38 28.0175 223.677 30.1779 225.367 32.9459C227.057 35.7138 227.901 38.8531 227.901 42.3638V56.3388C227.901 59.8494 227.057 62.9887 225.367 65.7567C223.745 68.5246 221.481 70.7188 218.575 72.3391C215.668 73.8918 212.357 74.6683 208.64 74.6683ZM210.465 64.1364C213.235 64.1364 215.635 63.5288 217.662 62.3136C219.758 61.0308 221.38 59.2755 222.528 57.0476C223.677 54.8197 224.252 52.2543 224.252 49.3513C224.252 46.4482 223.677 43.8828 222.528 41.6549C221.38 39.427 219.758 37.7055 217.662 36.4902C215.635 35.2075 213.235 34.5662 210.465 34.5662C207.761 34.5662 205.362 35.2075 203.267 36.4902C201.24 37.7055 199.618 39.427 198.401 41.6549C197.253 43.8828 196.678 46.4482 196.678 49.3513C196.678 52.2543 197.253 54.8197 198.401 57.0476C199.618 59.2755 201.24 61.0308 203.267 62.3136C205.362 63.5288 207.761 64.1364 210.465 64.1364ZM234.693 73.6556H223.542V60.592L225.468 48.7437L223.542 36.9966V0.742676H234.693V73.6556ZM242.608 73.6556V27.3761L253.76 25.047V73.6556H242.608ZM248.184 16.1354C246.291 16.1354 244.703 15.4941 243.419 14.2113C242.203 12.9285 241.595 11.3421 241.595 9.45172C241.595 7.56138 242.203 5.97485 243.419 4.69212C244.703 3.4094 246.291 2.76804 248.184 2.76804C250.144 2.76804 251.732 3.4094 252.949 4.69212C254.165 5.97485 254.773 7.56138 254.773 9.45172C254.773 11.3421 254.165 12.9285 252.949 14.2113C251.732 15.4941 250.144 16.1354 248.184 16.1354ZM282.081 74.6683C277.688 74.6683 273.7 73.5543 270.118 71.3264C266.604 69.0985 263.8 66.0942 261.704 62.3136C259.677 58.4654 258.663 54.1784 258.663 49.4525C258.663 44.6592 259.677 40.3722 261.704 36.5915C263.8 32.7433 266.604 29.7053 270.118 27.4774C273.7 25.182 277.688 24.0343 282.081 24.0343C285.798 24.0343 289.075 24.8444 291.914 26.4647C294.82 28.0175 297.117 30.1779 298.807 32.9459C300.497 35.7138 301.342 38.8531 301.342 42.3638V56.3388C301.342 59.8494 300.497 62.9887 298.807 65.7567C297.185 68.5246 294.922 70.7188 292.015 72.3391C289.109 73.8918 285.798 74.6683 282.081 74.6683ZM283.905 64.1364C288.028 64.1364 291.339 62.7524 293.84 59.9844C296.408 57.2164 297.692 53.6721 297.692 49.3513C297.692 46.4482 297.117 43.8828 295.969 41.6549C294.82 39.427 293.198 37.7055 291.103 36.4902C289.075 35.2075 286.676 34.5662 283.905 34.5662C281.202 34.5662 278.803 35.2075 276.708 36.4902C274.68 37.7055 273.058 39.427 271.842 41.6549C270.693 43.8828 270.118 46.4482 270.118 49.3513C270.118 52.2543 270.693 54.8197 271.842 57.0476C273.058 59.2755 274.68 61.0308 276.708 62.3136C278.803 63.5288 281.202 64.1364 283.905 64.1364ZM296.983 73.6556V60.592L298.909 48.7437L296.983 36.9966V25.047L307.381 27.3761L308.134 73.6556H296.983ZM349.3 73.6556V45.6044C349.3 42.3638 348.253 39.6971 346.157 37.6042C344.13 35.5113 341.494 34.4649 338.25 34.4649C336.088 34.4649 334.162 34.9375 332.472 35.8826C330.782 36.8278 329.464 38.1443 328.518 39.8321C327.572 41.5199 327.099 43.444 327.099 45.6044L322.74 43.1739C322.74 39.4607 323.551 36.1864 325.173 33.3509C326.795 30.4479 329.025 28.1863 331.864 26.566C334.77 24.8782 338.014 24.0343 341.595 24.0343C345.245 24.0343 348.489 24.9794 351.327 26.8698C354.166 28.6926 356.396 31.0893 358.018 34.0598C359.64 36.9629 360.451 40.0009 360.451 43.1739V73.6556H349.3ZM315.948 73.6556V25.047H327.099V73.6556H315.948Z" fill="#3A5041"/>
<path fill-rule="evenodd" clip-rule="evenodd" d="M0.657551 69.1865C0.274452 69.1064 0 68.7683 0 68.3765V23.5626C0 23.1056 0.370113 22.7351 0.826669 22.7351H10.3146C10.7711 22.7351 11.1413 23.1055 11.1413 23.5626V27.7083C12.4533 26.2343 14.0063 25.0157 15.8003 24.0525C18.5688 22.4986 21.6748 21.7217 25.1185 21.7217C28.5622 21.7217 31.6682 22.4648 34.4367 23.9512C37.0639 25.3618 39.1742 27.3199 40.7677 29.8258C42.5349 27.3684 44.7461 25.4441 47.401 24.0525C50.3046 22.4986 53.478 21.7217 56.9218 21.7217C60.433 21.7217 63.6065 22.4648 66.4425 23.9512C69.2785 25.4376 71.5404 27.5319 73.2285 30.2344C74.9167 32.937 75.7607 36.18 75.7607 39.9635V71.1716L65.446 71.38C64.9896 71.38 64.6194 71.0094 64.6194 70.5524V42.3957C64.6194 39.1527 63.6065 36.6529 61.5809 34.8962C59.5552 33.072 57.0568 32.1601 54.0858 32.1601C52.1277 32.1601 50.3383 32.5654 48.7177 33.376C47.0971 34.1869 45.8141 35.3692 44.8689 36.9231C44.1049 38.1245 43.6496 39.5467 43.5031 41.1895C43.4958 41.2715 43.4778 41.3496 43.4509 41.4231V70.5524C43.4509 71.0094 43.0808 71.38 42.6242 71.38H33.1364C32.6799 71.38 32.3097 71.0094 32.3097 70.5524V42.3957C32.3097 39.1527 31.2969 36.6529 29.2712 34.8962C27.2455 33.072 24.7472 32.1601 21.7761 32.1601C19.7504 32.1601 17.9273 32.5654 16.3068 33.376C14.7538 34.1869 13.5045 35.3692 12.5592 36.9231C11.8265 38.0754 11.3777 39.4305 11.2129 40.9888C11.2027 41.0853 11.1779 41.1765 11.1413 41.2605V70.3616C11.1413 70.8868 10.659 71.279 10.1455 71.1716L0.657551 69.1865Z" fill="#3A5041"/>
</svg>
