<svg width="194" height="210" viewBox="0 0 124 130" fill="none" xmlns="http://www.w3.org/2000/svg">
<path fill-rule="evenodd" clip-rule="evenodd" d="M73.4249 0.350983C70.048 1.27022 68.082 3.00704 65.8163 7.07284C64.28 9.82954 64.1987 9.9251 63.6756 9.5848C58.6375 6.30659 54.6324 3.98829 54.0062 3.98753C52.9866 3.98677 51.9756 5.15913 52.2056 6.07558C52.2971 6.43951 52.4854 6.87435 52.6244 7.04158C52.7632 7.20906 54.928 8.62312 57.4349 10.1843C59.9418 11.7453 62.0527 13.1192 62.1256 13.2374C62.1986 13.3555 48.2847 38.5318 31.2057 69.1846C-2.53192 129.736 -0.718853 126.256 0.526453 128.071C1.51075 129.505 2.38094 130 3.91648 130C4.89824 130 5.47667 129.852 5.99461 129.469C6.81982 128.858 76.3859 29.1681 76.6393 28.2329C77.007 26.8773 75.397 25.5267 74.1115 26.1125C73.7308 26.2861 60.6821 44.8008 38.8834 76.0973C19.8404 103.437 4.2001 125.807 4.12742 125.807C4.05473 125.807 4.27711 125.32 4.62173 124.727C4.96609 124.133 19.8594 97.3997 37.7181 65.3204C57.8225 29.2065 70.538 6.62326 71.1076 6.01967C72.5829 4.45617 73.7547 3.95729 75.9663 3.95119C77.4988 3.94687 78.1136 4.06886 79.1032 4.57384C82.555 6.33506 83.8008 10.2748 82.0655 13.9426C81.16 15.8566 81.1483 16.0047 81.8302 16.8716C82.4121 17.6117 83.6979 17.7883 84.3924 17.2236C85.7643 16.1084 86.7417 12.922 86.5913 10.0557C86.2436 3.43299 79.7327 -1.36627 73.4249 0.350983ZM73.2327 11.8866C72.9565 12.1311 71.5142 14.2898 70.0277 16.6838C67.148 21.3217 66.8624 22.1611 67.8337 23.1325C68.3796 23.6784 69.3631 23.7922 70.1047 23.3952C70.3568 23.2603 71.0069 22.4025 71.5493 21.4889C72.0916 20.5753 72.6533 19.8565 72.7971 19.8916C73.6071 20.0896 81.7811 25.4294 82.7364 26.3847C85.669 29.3173 86.5715 33.7592 85.0189 37.6187C84.7096 38.3874 79.856 46.3846 74.2328 55.3899C62.6652 73.9155 62.8667 73.5132 62.9003 78.0276C62.9168 80.234 63.0319 80.9927 63.5656 82.4095C64.9936 86.1998 67.237 88.8073 70.5823 90.5655C74.6669 92.7117 79.2028 92.7621 83.5261 90.7091C86.6243 89.2376 88.3439 87.1762 93.8255 78.362C98.9053 70.1938 99.7806 69.1183 102.297 67.9515C104.917 66.7367 107.952 66.6028 110.53 67.5881C111.159 67.8285 113.805 69.3607 116.409 70.9934C119.375 72.8524 121.397 73.9613 121.821 73.9613C122.555 73.9613 123.745 72.9536 123.745 72.3329C123.745 71.276 122.977 70.6071 118.643 67.8915C116.139 66.323 113.471 64.7556 112.713 64.4087C111.179 63.7063 108.371 63.0442 106.898 63.0374C105.169 63.0295 102.09 63.8158 100.279 64.7277C97.154 66.3016 95.7179 68.0196 90.4367 76.5027C87.8696 80.6262 85.2776 84.5281 84.6766 85.1736C82.4317 87.5846 78.6401 88.8455 75.4298 88.2485C69.6623 87.1757 65.8087 81.8229 66.7696 76.2191C66.9366 75.2454 67.347 73.9102 67.6817 73.2519C68.0164 72.5937 72.7984 64.8418 78.3085 56.0256C89.5828 37.9862 89.5551 38.0408 89.5419 33.8065C89.533 30.9799 89.0512 29.0985 87.7197 26.6905C86.3303 24.1775 84.4946 22.5736 79.3185 19.3503L74.6788 16.4612L75.1073 15.794C75.3431 15.4271 75.69 14.9012 75.8781 14.6255C77.1214 12.8048 74.8514 10.4542 73.2327 11.8866Z" fill="#F5F3ED"/>
</svg>
