<svg width="27" height="20" viewBox="0 0 27 20" fill="none" xmlns="http://www.w3.org/2000/svg">
<path d="M24.4062 0.625H1.90625C1.40897 0.625 0.932055 0.822544 0.580425 1.17417C0.228794 1.52581 0.03125 2.00272 0.03125 2.5V17.5C0.03125 17.9973 0.228794 18.4742 0.580425 18.8258C0.932055 19.1775 1.40897 19.375 1.90625 19.375H24.4062C24.9035 19.375 25.3804 19.1775 25.7321 18.8258C26.0837 18.4742 26.2812 17.9973 26.2812 17.5V2.5C26.2812 2.00272 26.0837 1.52581 25.7321 1.17417C25.3804 0.822544 24.9035 0.625 24.4062 0.625ZM22.3438 2.5L13.1562 8.85625L3.96875 2.5H22.3438ZM1.90625 17.5V3.35312L12.6219 10.7687C12.7788 10.8776 12.9653 10.936 13.1562 10.936C13.3472 10.936 13.5337 10.8776 13.6906 10.7687L24.4062 3.35312V17.5H1.90625Z" fill="white"/>
</svg>
