<svg width="29" height="29" viewBox="0 0 29 29" fill="none" xmlns="http://www.w3.org/2000/svg">
<path d="M22.2644 28.5332C21.9842 28.5324 21.7048 28.5017 21.4311 28.4415C16.2199 27.3635 11.4191 24.836 7.58107 21.1498C3.82496 17.4556 1.2199 12.752 0.0810707 7.60818C-0.0532115 6.9671 -0.0202534 6.30226 0.176774 5.67761C0.373802 5.05296 0.728269 4.48952 1.20607 4.04151L4.5394 0.833178C4.70966 0.672168 4.91195 0.548869 5.13309 0.47133C5.35422 0.39379 5.58921 0.363753 5.82274 0.383178C6.06487 0.408439 6.29854 0.486439 6.5073 0.611693C6.71605 0.736948 6.89484 0.906415 7.03107 1.10818L11.1977 7.26651C11.354 7.50546 11.4294 7.78826 11.4129 8.07329C11.3964 8.35832 11.2889 8.63052 11.1061 8.84984L9.01441 11.3498C9.84745 13.1936 11.0272 14.8599 12.4894 16.2582C13.9422 17.7072 15.6593 18.8642 17.5477 19.6665L20.1394 17.6082C20.3571 17.4361 20.622 17.3344 20.8988 17.3166C21.1757 17.2987 21.4514 17.3655 21.6894 17.5082L27.9811 21.5748C28.197 21.7038 28.3809 21.8799 28.5191 22.09C28.6573 22.3001 28.7462 22.5387 28.779 22.788C28.8119 23.0373 28.7879 23.2908 28.7089 23.5296C28.6299 23.7683 28.4979 23.986 28.3227 24.1665L25.0727 27.3832C24.7036 27.7505 24.2654 28.0413 23.7834 28.2386C23.3015 28.436 22.7852 28.5361 22.2644 28.5332ZM5.6894 2.03318L2.35607 5.24151C2.08728 5.49197 1.88831 5.80808 1.77873 6.15875C1.66914 6.50942 1.65272 6.88257 1.73107 7.24151C2.79001 12.0683 5.22417 16.4851 8.7394 19.9582C12.3512 23.4261 16.8691 25.8035 21.7727 26.8165C22.1439 26.8941 22.5285 26.8784 22.8921 26.7708C23.2557 26.6631 23.5869 26.467 23.8561 26.1998L27.1061 22.9832L21.0311 19.0582L18.2477 21.2748C18.1412 21.3592 18.0156 21.4162 17.882 21.4409C17.7484 21.4656 17.6107 21.4572 17.4811 21.4165C15.17 20.565 13.0756 19.2133 11.3477 17.4582C9.56053 15.7892 8.17326 13.7382 7.2894 11.4582C7.25201 11.3201 7.25077 11.1748 7.2858 11.0362C7.32082 10.8975 7.39094 10.7702 7.4894 10.6665L9.7394 7.97485L5.6894 2.03318Z" fill="white"/>
</svg>
