<svg width="94" height="95" viewBox="0 0 94 95" fill="none" xmlns="http://www.w3.org/2000/svg">
<path d="M11.749 47.25H46.999V53.125H11.749V47.25ZM5.87402 32.5625H35.249V38.4375H5.87402V32.5625Z" fill="black"/>
<path d="M87.8871 49.0301L79.0746 28.4676C78.8485 27.9391 78.4721 27.4887 77.9922 27.1722C77.5122 26.8557 76.9499 26.6872 76.3751 26.6875H67.5626V20.8125C67.5626 20.0334 67.2531 19.2863 66.7022 18.7354C66.1513 18.1845 65.4041 17.875 64.6251 17.875H17.6251V23.75H61.6876V60.6332C60.349 61.4105 59.1776 62.445 58.2409 63.6772C57.3041 64.9094 56.6206 66.3148 56.2297 67.8125H37.7704C37.0555 65.0434 35.3551 62.6302 32.9882 61.0251C30.6212 59.42 27.7501 58.7333 24.913 59.0936C22.0759 59.454 19.4677 60.8367 17.5771 62.9826C15.6866 65.1284 14.6436 67.8901 14.6436 70.75C14.6436 73.6099 15.6866 76.3716 17.5771 78.5174C19.4677 80.6633 22.0759 82.046 24.913 82.4063C27.7501 82.7667 30.6212 82.08 32.9882 80.4749C35.3551 78.8698 37.0555 76.4566 37.7704 73.6875H56.2297C56.8687 76.2086 58.3301 78.4446 60.3827 80.0418C62.4352 81.639 64.9618 82.5062 67.5626 82.5062C70.1634 82.5062 72.6899 81.639 74.7425 80.0418C76.795 78.4446 78.2564 76.2086 78.8954 73.6875H85.1876C85.9666 73.6875 86.7138 73.378 87.2647 72.8271C87.8156 72.2762 88.1251 71.5291 88.1251 70.75V50.1875C88.1252 49.7895 88.0443 49.3957 87.8871 49.0301ZM26.4376 76.625C25.2756 76.625 24.1397 76.2804 23.1736 75.6349C22.2075 74.9893 21.4544 74.0718 21.0098 72.9983C20.5651 71.9247 20.4488 70.7435 20.6755 69.6038C20.9021 68.4642 21.4617 67.4174 22.2833 66.5957C23.1049 65.7741 24.1518 65.2146 25.2914 64.9879C26.4311 64.7612 27.6123 64.8775 28.6858 65.3222C29.7593 65.7669 30.6769 66.5199 31.3225 67.486C31.968 68.4522 32.3126 69.588 32.3126 70.75C32.311 72.3077 31.6915 73.8011 30.5901 74.9025C29.4887 76.004 27.9952 76.6234 26.4376 76.625ZM67.5626 32.5625H74.4363L80.7343 47.25H67.5626V32.5625ZM67.5626 76.625C66.4006 76.625 65.2647 76.2804 64.2986 75.6349C63.3325 74.9893 62.5794 74.0718 62.1348 72.9983C61.6901 71.9247 61.5738 70.7435 61.8005 69.6038C62.0271 68.4642 62.5867 67.4174 63.4083 66.5957C64.2299 65.7741 65.2768 65.2146 66.4164 64.9879C67.556 64.7612 68.7373 64.8775 69.8108 65.3222C70.8843 65.7669 71.8019 66.5199 72.4474 67.486C73.093 68.4522 73.4376 69.588 73.4376 70.75C73.436 72.3077 72.8165 73.8011 71.7151 74.9025C70.6137 76.004 69.1202 76.6234 67.5626 76.625ZM82.2501 67.8125H78.8954C78.2484 65.2963 76.7846 63.066 74.7337 61.4712C72.6828 59.8764 70.1606 59.0072 67.5626 59V53.125H82.2501V67.8125Z" fill="black"/>
</svg>
