<svg width="38" height="74" viewBox="0 0 38 74" fill="none" xmlns="http://www.w3.org/2000/svg">
<path d="M31.9168 73.9584C33.1337 73.9607 34.3131 73.5369 35.2501 72.7604C35.7775 72.3232 36.2134 71.7862 36.533 71.1802C36.8525 70.5743 37.0494 69.9112 37.1123 69.229C37.1752 68.5469 37.1029 67.859 36.8995 67.2048C36.6962 66.5506 36.3657 65.943 35.9272 65.4167L12.5939 37.5L35.0939 9.53127C35.5265 8.99852 35.8496 8.38552 36.0445 7.7275C36.2395 7.06948 36.3025 6.37942 36.2299 5.69698C36.1573 5.01454 35.9505 4.35318 35.6215 3.75091C35.2925 3.14863 34.8476 2.61732 34.3126 2.18752C33.7737 1.71337 33.1427 1.35572 32.459 1.13703C31.7753 0.918338 31.0539 0.843319 30.3398 0.916677C29.6258 0.990036 28.9346 1.21019 28.3097 1.56333C27.6848 1.91646 27.1397 2.39495 26.7084 2.96877L1.5522 34.2188C0.786144 35.1507 0.367367 36.3197 0.367367 37.5261C0.367367 38.7324 0.786144 39.9014 1.5522 40.8334L27.5939 72.0834C28.1163 72.7136 28.7801 73.2119 29.5312 73.5377C30.2822 73.8634 31.0996 74.0076 31.9168 73.9584Z" fill="#C7C7C7"/>
</svg>
