<svg width="38" height="74" viewBox="0 0 38 74" fill="none" xmlns="http://www.w3.org/2000/svg">
<path d="M6.08334 73.9584C4.86641 73.9607 3.68705 73.5369 2.75001 72.7604C2.22262 72.3232 1.78668 71.7862 1.46713 71.1802C1.14759 70.5743 0.950737 69.9112 0.887842 69.229C0.824947 68.5469 0.897249 67.859 1.10061 67.2048C1.30396 66.5506 1.63437 65.943 2.07293 65.4167L25.4063 37.5L2.90626 9.53127C2.47363 8.99852 2.15055 8.38552 1.95559 7.7275C1.76063 7.06948 1.69764 6.37942 1.77024 5.69698C1.84284 5.01454 2.0496 4.35318 2.37863 3.75091C2.70766 3.14863 3.15248 2.61732 3.68751 2.18752C4.2264 1.71337 4.85747 1.35572 5.54113 1.13703C6.22478 0.918338 6.94627 0.843319 7.6603 0.916677C8.37432 0.990036 9.06548 1.21019 9.69038 1.56333C10.3153 1.91646 10.8605 2.39495 11.2917 2.96877L36.4479 34.2188C37.214 35.1507 37.6328 36.3197 37.6328 37.5261C37.6328 38.7324 37.214 39.9014 36.4479 40.8334L10.4063 72.0834C9.88377 72.7136 9.22006 73.2119 8.46897 73.5377C7.71787 73.8634 6.90056 74.0076 6.08334 73.9584Z" fill="#545454"/>
</svg>
