<svg width="41" height="39" viewBox="0 0 41 39" fill="none" xmlns="http://www.w3.org/2000/svg">
<path fill-rule="evenodd" clip-rule="evenodd" d="M18.542 2.2465C18.6772 1.81754 18.9457 1.44287 19.3085 1.17692C19.6712 0.910968 20.1093 0.767578 20.559 0.767578C21.0088 0.767578 21.4469 0.910968 21.8096 1.17692C22.1723 1.44287 22.4408 1.81754 22.5761 2.2465L26.2186 13.4482H37.9686C38.4345 13.4305 38.8933 13.5659 39.275 13.8336C39.6567 14.1013 39.9402 14.4866 40.0823 14.9307C40.2244 15.3747 40.2172 15.853 40.0618 16.2926C39.9065 16.7321 39.6115 17.1087 39.222 17.3648L29.6849 24.2777L33.3274 35.499C33.4714 35.9264 33.4751 36.3887 33.3377 36.8184C33.2004 37.248 32.9293 37.6225 32.5641 37.8872C32.1988 38.1518 31.7585 38.2928 31.3075 38.2894C30.8564 38.2861 30.4182 38.1386 30.057 37.8686L20.5003 30.8773L10.9632 37.8098C10.6019 38.0799 10.1637 38.2273 9.7127 38.2307C9.26165 38.234 8.82135 38.0931 8.45609 37.8284C8.09083 37.5638 7.81975 37.1893 7.68242 36.7596C7.5451 36.33 7.54873 35.8677 7.69279 35.4402L11.3353 24.219L1.7982 17.3061C1.40866 17.05 1.11367 16.6734 0.958313 16.2338C0.802956 15.7943 0.795772 15.3159 0.937858 14.8719C1.07994 14.4279 1.36349 14.0426 1.74517 13.7749C2.12684 13.5072 2.58567 13.3718 3.05154 13.3894H14.8015L18.542 2.2465Z" fill="#FDBC15"/>
</svg>
