<svg width="106" height="106" viewBox="0 0 106 106" fill="none" xmlns="http://www.w3.org/2000/svg">
<circle cx="52.9813" cy="52.9813" r="52.9813" fill="#A2BEAA"/>
<path fill-rule="evenodd" clip-rule="evenodd" d="M43.9429 41.3914C44.0422 42.8649 44.2906 44.3053 44.6879 45.6795L42.7011 47.6663C42.0223 45.6795 41.5918 43.5768 41.4428 41.3914H43.9429ZM60.2676 61.2924C61.6749 61.6898 63.1153 61.9382 64.5723 62.0375V64.5044C62.3869 64.3554 60.2842 63.925 58.2808 63.2627L60.2676 61.2924ZM45.532 38.0801H39.7372C38.8266 38.0801 38.0815 38.8251 38.0815 39.7357C38.0815 55.2824 50.6812 67.8821 66.2278 67.8821C67.1385 67.8821 67.8835 67.137 67.8835 66.2264V60.4481C67.8835 59.5375 67.1385 58.7924 66.2278 58.7924C64.1748 58.7924 62.1715 58.4613 60.3171 57.8487C60.1516 57.7825 59.9694 57.7659 59.8039 57.7659C59.3734 57.7659 58.9595 57.9315 58.6283 58.2461L54.9859 61.8885C50.3004 59.4878 46.4592 55.6632 44.0751 50.9777L47.7175 47.3352C48.1811 46.8717 48.3136 46.226 48.1314 45.6465C47.5188 43.7921 47.1877 41.8053 47.1877 39.7357C47.1877 38.8251 46.4427 38.0801 45.532 38.0801Z" fill="white"/>
</svg>
