<svg width="106" height="106" viewBox="0 0 106 106" fill="none" xmlns="http://www.w3.org/2000/svg">
<circle cx="52.9813" cy="52.9813" r="52.9813" fill="#A2BEAA"/>
<path fill-rule="evenodd" clip-rule="evenodd" d="M52.9827 36.4243C59.3901 36.4243 64.5724 41.6065 64.5724 48.014C64.5724 56.7062 52.9827 69.5376 52.9827 69.5376C52.9827 69.5376 41.3931 56.7062 41.3931 48.014C41.3931 41.6065 46.5753 36.4243 52.9827 36.4243ZM44.7043 48.014C44.7043 52.7327 49.5388 59.9514 52.9826 64.372C56.4926 59.9183 61.2609 52.7823 61.2609 48.014C61.2609 43.4444 57.5522 39.7357 52.9826 39.7357C48.413 39.7357 44.7043 43.4444 44.7043 48.014ZM52.9824 52.1534C50.6964 52.1534 48.8433 50.3002 48.8433 48.0142C48.8433 45.7282 50.6964 43.875 52.9824 43.875C55.2684 43.875 57.1216 45.7282 57.1216 48.0142C57.1216 50.3002 55.2684 52.1534 52.9824 52.1534Z" fill="white"/>
</svg>
